HIERARCHY
ROOT Hips
{
	OFFSET 0.000000 87.230942 0.000000
	CHANNELS 6 Xposition Yposition Zposition Xrotation Yrotation Zrotation
	JOINT Pelvis
	{
		OFFSET 0.000000 0.000000 0.000000
		CHANNELS 3 Xrotation Yrotation Zrotation
		JOINT LeftUpLeg
		{
			OFFSET 12.017000 -9.376404 -2.439400
			CHANNELS 3 Xrotation Yrotation Zrotation
			JOINT LeftLeg
			{
				OFFSET -0.007312 -32.846973 2.110600
				CHANNELS 3 Xrotation Yrotation Zrotation
				JOINT LeftFoot
				{
					OFFSET 0.007312 -32.065170 -0.570400
					CHANNELS 3 Xrotation Yrotation Zrotation
					JOINT LeftToeBase
					{
						OFFSET 0.728300 -11.045900 13.180700
						CHANNELS 3 Xrotation Yrotation Zrotation
						End Site
						{
							OFFSET 0.000000 17.212589 0.000000
						}
					}
				}
				JOINT LeftPantLeg
				{
					OFFSET 0.002788 -16.709013 -3.143600
					CHANNELS 3 Xrotation Yrotation Zrotation
					End Site
					{
						OFFSET -0.605125 24.528742 0.000000
					}
				}
			}
			JOINT Left_Butt
			{
				OFFSET -6.630234 1.326584 -3.183700
				CHANNELS 3 Xrotation Yrotation Zrotation
				End Site
				{
					OFFSET -0.498041 20.188049 0.000000
				}
			}
		}
		JOINT RightUpLeg
		{
			OFFSET -11.717000 -9.376404 -2.439400
			CHANNELS 3 Xrotation Yrotation Zrotation
			JOINT RightLeg
			{
				OFFSET -0.003241 -32.846912 2.110600
				CHANNELS 3 Xrotation Yrotation Zrotation
				JOINT RightFoot
				{
					OFFSET 0.003241 -32.065136 -0.570500
					CHANNELS 3 Xrotation Yrotation Zrotation
					JOINT RightToeBase
					{
						OFFSET -0.728300 -11.045901 13.180700
						CHANNELS 3 Xrotation Yrotation Zrotation
						End Site
						{
							OFFSET 0.000000 17.212593 0.000000
						}
					}
				}
				JOINT RightPantLeg
				{
					OFFSET 0.008142 -16.708982 -3.143700
					CHANNELS 3 Xrotation Yrotation Zrotation
					End Site
					{
						OFFSET 0.605088 24.528715 0.000000
					}
				}
			}
			JOINT Right_Butt
			{
				OFFSET 6.630732 1.326584 -3.183700
				CHANNELS 3 Xrotation Yrotation Zrotation
				End Site
				{
					OFFSET 0.498015 20.188240 0.000000
				}
			}
		}
	}
	JOINT Spine
	{
		OFFSET -0.062400 7.848404 3.918300
		CHANNELS 3 Xrotation Yrotation Zrotation
		JOINT Spine1
		{
			OFFSET -0.072800 11.422302 0.713400
			CHANNELS 3 Xrotation Yrotation Zrotation
			JOINT Spine2
			{
				OFFSET -0.083200 13.054001 -1.931600
				CHANNELS 3 Xrotation Yrotation Zrotation
				JOINT Neck
				{
					OFFSET -0.092200 14.121796 -5.138800
					CHANNELS 3 Xrotation Yrotation Zrotation
					JOINT Head
					{
						OFFSET 0.000200 10.447403 -0.842000
						CHANNELS 3 Xrotation Yrotation Zrotation
						JOINT Visor
						{
							OFFSET 0.457100 25.671204 16.550400
							CHANNELS 3 Xrotation Yrotation Zrotation
							End Site
							{
								OFFSET 0.000000 26.061493 0.000000
							}
						}
						JOINT HairMidA
						{
							OFFSET 0.459400 31.585403 8.437400
							CHANNELS 3 Xrotation Yrotation Zrotation
							End Site
							{
								OFFSET 0.000000 26.061493 0.000000
							}
						}
						JOINT HairMidB
						{
							OFFSET 0.464000 33.309204 -8.389700
							CHANNELS 3 Xrotation Yrotation Zrotation
							End Site
							{
								OFFSET 0.000000 26.061493 0.000000
							}
						}
						JOINT HairMidC
						{
							OFFSET 0.466600 27.991196 -17.375099
							CHANNELS 3 Xrotation Yrotation Zrotation
							End Site
							{
								OFFSET 0.000000 26.061493 0.000000
							}
						}
						JOINT HairMidD
						{
							OFFSET 0.467700 17.888092 -21.169500
							CHANNELS 3 Xrotation Yrotation Zrotation
							End Site
							{
								OFFSET 0.000000 26.061493 0.000000
							}
						}
						JOINT HairMidE
						{
							OFFSET 5.325700 3.514603 -14.369699
							CHANNELS 3 Xrotation Yrotation Zrotation
							End Site
							{
								OFFSET 0.000000 26.061493 0.000000
							}
						}
						JOINT HairMidF
						{
							OFFSET -4.394100 3.514603 -14.372400
							CHANNELS 3 Xrotation Yrotation Zrotation
							End Site
							{
								OFFSET 0.000000 26.061493 0.000000
							}
						}
						JOINT HairLeftA
						{
							OFFSET 15.319900 25.746506 2.623300
							CHANNELS 3 Xrotation Yrotation Zrotation
							End Site
							{
								OFFSET 0.000000 26.061493 0.000000
							}
						}
						JOINT HairLeftB
						{
							OFFSET 12.619500 29.289398 -8.731499
							CHANNELS 3 Xrotation Yrotation Zrotation
							End Site
							{
								OFFSET 0.000000 26.061493 0.000000
							}
						}
						JOINT HairLeftC
						{
							OFFSET 15.714800 15.959900 2.909800
							CHANNELS 3 Xrotation Yrotation Zrotation
							End Site
							{
								OFFSET 0.000000 26.061493 0.000000
							}
						}
						JOINT HairLeftD
						{
							OFFSET 16.101700 18.437408 -7.553200
							CHANNELS 3 Xrotation Yrotation Zrotation
							End Site
							{
								OFFSET 0.000000 26.061493 0.000000
							}
						}
						JOINT HairLeftE
						{
							OFFSET 9.731900 17.915009 -18.316799
							CHANNELS 3 Xrotation Yrotation Zrotation
							End Site
							{
								OFFSET 0.000000 26.061493 0.000000
							}
						}
						JOINT HairLeftF
						{
							OFFSET 11.204300 4.953598 -9.668100
							CHANNELS 3 Xrotation Yrotation Zrotation
							End Site
							{
								OFFSET 0.000000 26.061493 0.000000
							}
						}
						JOINT HairRightA
						{
							OFFSET -14.397900 25.746307 2.615100
							CHANNELS 3 Xrotation Yrotation Zrotation
							End Site
							{
								OFFSET 0.000000 26.061493 0.000000
							}
						}
						JOINT HairRightB
						{
							OFFSET -11.691200 29.289200 -8.738199
							CHANNELS 3 Xrotation Yrotation Zrotation
							End Site
							{
								OFFSET 0.000000 26.061493 0.000000
							}
						}
						JOINT HairRightC
						{
							OFFSET -14.792900 15.959702 2.901400
							CHANNELS 3 Xrotation Yrotation Zrotation
							End Site
							{
								OFFSET 0.000000 26.061493 0.000000
							}
						}
						JOINT HairRightD
						{
							OFFSET -15.174000 18.437195 -7.561900
							CHANNELS 3 Xrotation Yrotation Zrotation
							End Site
							{
								OFFSET 0.000000 26.061493 0.000000
							}
						}
						JOINT HairRightE
						{
							OFFSET -8.798200 17.914902 -18.322001
							CHANNELS 3 Xrotation Yrotation Zrotation
							End Site
							{
								OFFSET 0.000000 26.061493 0.000000
							}
						}
						JOINT HairRightF
						{
							OFFSET -10.275200 4.953506 -9.674099
							CHANNELS 3 Xrotation Yrotation Zrotation
							End Site
							{
								OFFSET 0.000000 26.061493 0.000000
							}
						}
					}
				}
				JOINT LeftShoulder
				{
					OFFSET 5.133500 7.341202 -1.867600
					CHANNELS 3 Xrotation Yrotation Zrotation
					JOINT LeftArm
					{
						OFFSET 8.072663 0.936867 -2.176600
						CHANNELS 3 Xrotation Yrotation Zrotation
						JOINT LeftForeArm
						{
							OFFSET 31.271999 0.000000 0.000000
							CHANNELS 3 Xrotation Yrotation Zrotation
							JOINT LeftHand
							{
								OFFSET 31.771030 0.000000 0.000000
								CHANNELS 3 Xrotation Yrotation Zrotation
								JOINT LeftHandThumb1
								{
									OFFSET 2.886520 -2.557846 4.416640
									CHANNELS 3 Xrotation Yrotation Zrotation
									JOINT LeftHandThumb2
									{
										OFFSET 2.371025 -1.368912 1.368911
										CHANNELS 3 Xrotation Yrotation Zrotation
										JOINT LeftHandThumb3
										{
											OFFSET 2.243378 -1.295212 1.295213
											CHANNELS 3 Xrotation Yrotation Zrotation
											End Site
											{
												OFFSET -0.332611 2.876945 0.020015
											}
										}
									}
								}
								JOINT LeftHandIndex1
								{
									OFFSET 8.568985 -0.641945 3.119977
									CHANNELS 3 Xrotation Yrotation Zrotation
									JOINT LeftHandIndex2
									{
										OFFSET 3.348503 0.000000 0.000000
										CHANNELS 3 Xrotation Yrotation Zrotation
										JOINT LeftHandIndex3
										{
											OFFSET 3.314552 0.000000 0.000000
											CHANNELS 3 Xrotation Yrotation Zrotation
											End Site
											{
												OFFSET -1.032898 3.075485 0.678796
											}
										}
									}
								}
								JOINT LeftHandMiddle1
								{
									OFFSET 8.124603 0.000000 0.000000
									CHANNELS 3 Xrotation Yrotation Zrotation
									JOINT LeftHandMiddle2
									{
										OFFSET 4.166275 0.000000 0.000000
										CHANNELS 3 Xrotation Yrotation Zrotation
										JOINT LeftHandMiddle3
										{
											OFFSET 3.018135 0.000000 0.000000
											CHANNELS 3 Xrotation Yrotation Zrotation
											End Site
											{
												OFFSET -1.032700 2.767982 0.617226
											}
										}
									}
								}
								JOINT LeftHandRing1
								{
									OFFSET 8.571686 -0.031357 -2.884048
									CHANNELS 3 Xrotation Yrotation Zrotation
									JOINT LeftHandRing2
									{
										OFFSET 3.671181 0.000000 0.000000
										CHANNELS 3 Xrotation Yrotation Zrotation
										JOINT LeftHandRing3
										{
											OFFSET 2.728851 0.000000 0.000000
											CHANNELS 3 Xrotation Yrotation Zrotation
											End Site
											{
												OFFSET -0.815796 2.539223 0.577389
											}
										}
									}
								}
								JOINT LeftHandPinky1
								{
									OFFSET 7.854515 -0.675232 -5.213020
									CHANNELS 3 Xrotation Yrotation Zrotation
									JOINT LeftHandPinky2
									{
										OFFSET 3.068596 0.000000 0.000000
										CHANNELS 3 Xrotation Yrotation Zrotation
										JOINT LeftHandPinky3
										{
											OFFSET 2.396042 0.000000 0.000000
											CHANNELS 3 Xrotation Yrotation Zrotation
											End Site
											{
												OFFSET -0.524597 2.267998 0.567429
											}
										}
									}
								}
							}
							JOINT LeftSleeve
							{
								OFFSET 19.684509 -0.200119 0.476146
								CHANNELS 3 Xrotation Yrotation Zrotation
								End Site
								{
									OFFSET -0.031017 25.731133 -0.002868
								}
							}
						}
					}
				}
				JOINT RightShoulder
				{
					OFFSET -4.395900 7.341202 -1.870200
					CHANNELS 3 Xrotation Yrotation Zrotation
					JOINT RightArm
					{
						OFFSET -8.071453 0.936867 -2.181100
						CHANNELS 3 Xrotation Yrotation Zrotation
						JOINT RightForeArm
						{
							OFFSET -31.272011 0.000000 0.000000
							CHANNELS 3 Xrotation Yrotation Zrotation
							JOINT RightHand
							{
								OFFSET -31.771019 0.000000 0.000000
								CHANNELS 3 Xrotation Yrotation Zrotation
								JOINT RightHandThumb1
								{
									OFFSET -2.886520 -2.557808 4.416626
									CHANNELS 3 Xrotation Yrotation Zrotation
									JOINT RightHandThumb2
									{
										OFFSET -2.371056 -1.368927 1.368928
										CHANNELS 3 Xrotation Yrotation Zrotation
										JOINT RightHandThumb3
										{
											OFFSET -2.243362 -1.295204 1.295206
											CHANNELS 3 Xrotation Yrotation Zrotation
											End Site
											{
												OFFSET 0.332642 2.876938 0.020047
											}
										}
									}
								}
								JOINT RightHandIndex1
								{
									OFFSET -8.568993 -0.641953 3.120017
									CHANNELS 3 Xrotation Yrotation Zrotation
									JOINT RightHandIndex2
									{
										OFFSET -3.348518 0.000000 0.000000
										CHANNELS 3 Xrotation Yrotation Zrotation
										JOINT RightHandIndex3
										{
											OFFSET -3.314552 0.000000 0.000000
											CHANNELS 3 Xrotation Yrotation Zrotation
											End Site
											{
												OFFSET 1.032898 3.075478 0.678804
											}
										}
									}
								}
								JOINT RightHandMiddle1
								{
									OFFSET -8.124588 0.000000 0.000000
									CHANNELS 3 Xrotation Yrotation Zrotation
									JOINT RightHandMiddle2
									{
										OFFSET -4.166275 0.000000 0.000000
										CHANNELS 3 Xrotation Yrotation Zrotation
										JOINT RightHandMiddle3
										{
											OFFSET -3.018097 0.000000 0.000000
											CHANNELS 3 Xrotation Yrotation Zrotation
											End Site
											{
												OFFSET 1.032700 2.767937 0.617197
											}
										}
									}
								}
								JOINT RightHandRing1
								{
									OFFSET -8.571747 -0.031349 -2.884061
									CHANNELS 3 Xrotation Yrotation Zrotation
									JOINT RightHandRing2
									{
										OFFSET -3.671204 0.000000 0.000000
										CHANNELS 3 Xrotation Yrotation Zrotation
										JOINT RightHandRing3
										{
											OFFSET -2.728874 0.000000 0.000000
											CHANNELS 3 Xrotation Yrotation Zrotation
											End Site
											{
												OFFSET 0.815804 2.539261 0.577413
											}
										}
									}
								}
								JOINT RightHandPinky1
								{
									OFFSET -7.854561 -0.675247 -5.212970
									CHANNELS 3 Xrotation Yrotation Zrotation
									JOINT RightHandPinky2
									{
										OFFSET -3.068550 0.000000 0.000000
										CHANNELS 3 Xrotation Yrotation Zrotation
										JOINT RightHandPinky3
										{
											OFFSET -2.395981 0.000000 0.000000
											CHANNELS 3 Xrotation Yrotation Zrotation
											End Site
											{
												OFFSET 0.524605 2.267952 0.567413
											}
										}
									}
								}
							}
							JOINT RightSleeve
							{
								OFFSET -19.684753 -0.200165 0.476065
								CHANNELS 3 Xrotation Yrotation Zrotation
								End Site
								{
									OFFSET 0.031342 25.731255 -0.002917
								}
							}
						}
					}
				}
				JOINT Hood
				{
					OFFSET 0.369700 14.447800 -5.317800
					CHANNELS 3 Xrotation Yrotation Zrotation
					JOINT Hood1
					{
						OFFSET 0.001700 -5.553802 -5.895100
						CHANNELS 3 Xrotation Yrotation Zrotation
						JOINT Hood2
						{
							OFFSET -0.000200 -8.380501 0.763600
							CHANNELS 3 Xrotation Yrotation Zrotation
							End Site
							{
								OFFSET 0.000000 8.415215 0.000000
							}
						}
					}
				}
				JOINT Left_Breast
				{
					OFFSET 5.682500 3.120102 3.188800
					CHANNELS 3 Xrotation Yrotation Zrotation
					End Site
					{
						OFFSET 0.000000 10.528564 0.000000
					}
				}
				JOINT Right_Breast
				{
					OFFSET -4.947600 3.120102 3.185900
					CHANNELS 3 Xrotation Yrotation Zrotation
					End Site
					{
						OFFSET 0.000000 10.528564 0.000000
					}
				}
				JOINT Whistle
				{
					OFFSET 0.368200 11.471298 0.095400
					CHANNELS 3 Xrotation Yrotation Zrotation
					JOINT Whistle1
					{
						OFFSET -0.002000 -6.349899 7.479800
						CHANNELS 3 Xrotation Yrotation Zrotation
						JOINT Whistle2
						{
							OFFSET -0.001300 -8.217598 4.717600
							CHANNELS 3 Xrotation Yrotation Zrotation
							End Site
							{
								OFFSET 0.000000 9.475479 0.000000
							}
						}
					}
				}
			}
		}
		JOINT Belly
		{
			OFFSET 0.212400 1.593002 3.163700
			CHANNELS 3 Xrotation Yrotation Zrotation
			End Site
			{
				OFFSET 0.000000 7.496635 0.000000
			}
		}
	}
	JOINT FitGrandmaFacialAnim_Joint
	{
		OFFSET 1.150000 -86.211197 -1.220100
		CHANNELS 3 Xrotation Yrotation Zrotation
		End Site
		{
			OFFSET 0.000000 31.666618 0.000000
		}
	}
}
MOTION
Frames: 4
Frame Time: 0.016667
-5.989316 81.427361 76.751534 23.406515 13.015632 -8.838882 -0.000002 -0.000002 0.000000 -30.740861 -3.369851 -5.590349 33.807097 -4.313086 -3.183099 -25.714450 2.109371 10.780625 0.000000 0.000001 -0.000000 0.000002 0.000001 0.000001 0.000001 -0.000000 -0.000000 -51.644338 -7.958700 -11.641032 54.204542 -6.396832 0.720228 3.456247 -5.182153 16.523203 0.000000 -0.000000 0.000001 -0.000001 0.000001 0.000000 0.000001 -0.000000 0.000001 9.542002 1.404912 -1.459675 -0.471743 1.782878 -0.358116 -0.315416 2.367532 -0.492589 -11.049972 -0.300774 0.541619 -9.090195 2.277655 -2.833868 0.000000 0.000001 0.000001 0.000000 0.000001 0.000001 0.000000 0.000001 0.000001 0.000000 0.000001 0.000001 0.000000 0.000001 0.000001 0.000000 0.000001 0.000001 0.000000 0.000001 0.000001 0.000000 0.000001 0.000001 0.000000 0.000001 0.000001 0.000000 0.000001 0.000001 0.000000 0.000001 0.000001 0.000000 0.000001 0.000001 0.000000 0.000001 0.000001 0.000000 0.000001 0.000001 0.000000 0.000001 0.000001 0.000000 0.000001 0.000001 0.000000 0.000001 0.000001 0.000000 0.000001 0.000001 0.000000 0.000001 0.000001 0.804513 -1.055562 -19.731158 11.314136 -4.215695 -51.272564 -0.000011 -61.671793 0.000001 -22.443201 13.772024 -17.933497 74.824005 -40.508131 61.030315 25.606309 5.176749 -82.902241 0.000001 0.000001 0.000002 5.901603 7.863735 -80.435504 5.375063 5.831703 -85.325715 0.000002 -0.000001 0.000000 5.020588 8.216376 -91.029387 4.694982 5.736094 -78.585069 -0.000000 0.000000 -0.000001 4.404999 8.246857 -91.688398 5.835784 5.851085 -89.849759 0.000000 0.000001 -0.000003 5.249108 8.404214 -99.924657 2.493722 4.794733 -54.937568 -0.000002 -0.000002 0.000001 -0.000000 -0.000000 -0.000000 0.318336 6.828677 17.985686 14.222246 -10.989042 46.953845 -0.000018 67.377801 0.000007 -3.079465 -19.120679 7.109480 47.809723 35.835366 -5.333785 34.631334 -33.014522 35.094595 0.000001 -0.000001 0.000001 6.363553 -7.114810 84.445133 4.420408 -4.651179 87.082474 -0.000001 -0.000001 -0.000001 7.913285 -6.614844 96.213494 4.359594 -4.647669 86.332683 -0.000000 -0.000000 -0.000001 5.619635 -6.842411 101.279978 3.622443 -4.541016 77.149111 -0.000000 -0.000002 0.000001 5.448594 -6.873502 99.955194 1.714554 -3.611322 50.782518 -0.000007 0.000001 -0.000002 0.000002 -0.000000 0.000001 0.000000 0.000001 -0.000001 0.000000 0.000001 -0.000001 0.000000 0.000001 -0.000001 0.000000 0.000001 -0.000001 0.000000 0.000001 -0.000001 0.000000 0.000001 -0.000001 -0.000001 0.000001 -0.000001 -0.000001 0.000001 -0.000001 -0.000001 0.000000 -0.000001 -0.000002 -0.000002 0.000000 
-5.892800 81.329071 78.966774 23.670673 13.659839 -9.086323 -0.000001 -0.000000 -0.000000 -28.673196 -5.009150 -5.267362 32.967424 -3.218088 -3.466624 -27.146030 1.551688 10.174451 0.000000 -0.000000 -0.000000 -0.000001 -0.000000 0.000001 -0.000001 -0.000000 -0.000000 -53.567142 -7.526042 -11.870419 51.203193 -6.469440 0.429669 3.870311 -6.248552 15.545668 0.000000 0.000001 -0.000000 0.000001 0.000000 0.000001 0.000001 -0.000000 -0.000000 9.412157 1.071957 -1.354392 -0.422836 1.770880 -0.370545 -0.273312 2.351416 -0.497365 -11.032303 -0.263005 0.489891 -9.196469 2.170654 -2.889698 0.000000 -0.000001 -0.000000 0.000000 -0.000001 -0.000000 0.000000 -0.000001 -0.000000 0.000000 -0.000001 -0.000000 0.000000 -0.000001 -0.000000 0.000000 -0.000001 -0.000000 0.000000 -0.000001 -0.000000 0.000000 -0.000001 -0.000000 0.000000 -0.000001 -0.000000 0.000000 -0.000001 -0.000000 0.000000 -0.000001 -0.000000 0.000000 -0.000001 -0.000000 0.000000 -0.000001 -0.000000 0.000000 -0.000001 -0.000000 0.000000 -0.000001 -0.000000 0.000000 -0.000001 -0.000000 0.000000 -0.000001 -0.000000 0.000000 -0.000001 -0.000000 0.000000 -0.000001 -0.000000 0.828888 -1.055383 -19.581369 11.301117 -4.179483 -51.475154 -0.000008 -61.665523 0.000005 -22.424822 13.662215 -18.020863 74.823998 -40.508127 61.030322 25.831907 5.594308 -83.199067 -0.000000 -0.000001 0.000002 5.804508 7.842006 -80.834428 5.406374 5.834177 -85.633954 0.000001 0.000001 -0.000001 5.050366 8.220817 -91.320299 4.691293 5.735349 -78.548166 0.000000 -0.000000 -0.000003 4.420660 8.250812 -91.840602 5.847137 5.851091 -89.961228 -0.000001 -0.000000 -0.000001 5.222587 8.401232 -99.673599 2.447213 4.761883 -54.379313 0.000001 -0.000001 -0.000001 -0.000000 0.000001 -0.000001 0.322461 6.792939 17.816152 14.532745 -11.075077 47.066017 -0.000017 67.339607 0.000014 -3.353838 -18.746245 7.238127 47.809729 35.835359 -5.333781 34.631330 -33.014522 35.094598 -0.000002 0.000002 -0.000001 6.477969 -7.129489 84.356798 4.420376 -4.651191 87.082071 -0.000001 -0.000004 0.000006 7.925208 -6.629782 95.875584 4.359717 -4.647677 86.333974 -0.000000 -0.000001 -0.000000 5.608988 -6.844511 101.146489 3.622720 -4.541088 77.152738 0.000002 -0.000003 0.000001 5.470996 -6.869722 100.094776 1.712305 -3.609481 50.746851 -0.000003 -0.000001 0.000001 -0.000001 0.000001 -0.000001 -0.000002 0.000000 0.000000 -0.000002 0.000000 0.000000 -0.000002 0.000000 0.000000 -0.000002 0.000000 0.000000 -0.000002 0.000000 0.000000 -0.000002 0.000000 0.000000 -0.000002 0.000001 0.000000 -0.000002 0.000001 0.000000 -0.000000 0.000000 -0.000001 -0.000001 -0.000000 -0.000000 
-5.805371 81.128265 81.212425 23.934079 14.171883 -9.248090 0.000003 -0.000000 0.000000 -26.562051 -6.302320 -4.916937 32.197812 -2.032811 -3.644917 -28.651042 0.803877 9.469636 0.000000 0.000000 -0.000000 0.000001 -0.000000 -0.000001 -0.000000 -0.000001 0.000001 -55.910201 -6.737838 -12.030698 48.251540 -6.026380 0.333635 4.791977 -7.473129 14.913028 0.000001 -0.000001 -0.000000 0.000001 0.000000 0.000001 -0.000002 0.000000 -0.000000 9.240004 0.735771 -1.350926 -0.374504 1.775978 -0.381386 -0.232037 2.353976 -0.505843 -11.041554 -0.226226 0.447398 -9.369437 2.134343 -2.939960 0.000001 -0.000001 -0.000000 0.000001 -0.000001 -0.000000 0.000001 -0.000001 -0.000000 0.000001 -0.000001 -0.000000 0.000001 -0.000001 -0.000000 0.000001 -0.000001 -0.000000 0.000001 -0.000001 -0.000000 0.000001 -0.000001 -0.000000 0.000001 -0.000001 -0.000000 0.000001 -0.000001 -0.000000 0.000001 -0.000001 -0.000000 0.000001 -0.000001 -0.000000 0.000001 -0.000001 -0.000000 0.000001 -0.000001 -0.000000 0.000001 -0.000001 -0.000000 0.000001 -0.000001 -0.000000 0.000001 -0.000001 -0.000000 0.000001 -0.000001 -0.000000 0.000001 -0.000001 -0.000000 0.850977 -1.055166 -19.445718 11.378941 -4.063372 -51.572614 -0.000029 -61.739637 -0.000031 -22.565934 13.410609 -18.078264 74.824005 -40.508127 61.030315 25.822083 5.576434 -83.186882 -0.000000 -0.000003 0.000001 5.795688 7.839566 -80.912566 5.409741 5.834437 -85.666965 0.000002 -0.000001 0.000002 5.057592 8.221874 -91.390875 4.690754 5.735245 -78.542722 -0.000000 0.000000 -0.000001 4.426198 8.252203 -91.894410 5.849568 5.851099 -89.985072 0.000002 0.000001 -0.000001 5.222016 8.401174 -99.668122 2.445846 4.760892 -54.362773 0.000000 -0.000001 -0.000002 0.000000 0.000003 -0.000001 0.330575 6.717009 17.586545 14.906736 -11.096844 47.280707 -0.000008 67.421159 0.000033 -3.553408 -18.321013 7.173595 47.809723 35.835366 -5.333781 34.631327 -33.014522 35.094598 -0.000001 0.000002 -0.000000 6.464529 -7.132924 84.233854 4.420350 -4.651175 87.081743 0.000000 -0.000001 -0.000001 7.910780 -6.635637 95.783732 4.359814 -4.647681 86.335244 0.000001 -0.000002 -0.000002 5.607748 -6.844744 101.131039 3.623031 -4.541155 77.156474 -0.000002 -0.000002 0.000001 5.469730 -6.869936 100.086430 1.712255 -3.609447 50.745949 -0.000001 0.000000 -0.000001 -0.000004 0.000001 -0.000001 -0.000003 -0.000001 0.000001 -0.000003 -0.000001 0.000001 -0.000003 -0.000001 0.000001 -0.000003 -0.000001 0.000001 -0.000003 -0.000001 0.000001 -0.000003 -0.000001 0.000001 -0.000002 0.000000 0.000000 -0.000002 0.000000 0.000000 0.000003 -0.000001 0.000001 0.000003 -0.000000 0.000000 
-5.749680 80.756180 83.556114 24.108065 14.601450 -9.226553 -0.000002 -0.000001 0.000001 -24.362986 -7.411096 -4.680268 31.697422 -0.796811 -3.720639 -30.462528 0.059875 8.713400 0.000000 0.000000 -0.000000 0.000002 -0.000001 0.000001 -0.000000 0.000000 0.000001 -58.442220 -5.287486 -11.978078 45.483114 -7.765640 -0.078898 6.557599 -6.258991 15.243659 -0.000000 0.000001 -0.000000 -0.000000 0.000000 0.000000 0.000004 -0.000000 -0.000000 9.052531 0.395406 -1.573735 -0.327086 1.791587 -0.387871 -0.191801 2.389391 -0.519254 -11.094798 -0.194229 0.432497 -9.618920 2.159160 -3.032440 0.000000 0.000002 -0.000000 0.000000 0.000002 -0.000000 0.000000 0.000002 -0.000000 0.000000 0.000002 -0.000000 0.000000 0.000002 -0.000000 0.000000 0.000002 -0.000000 0.000000 0.000002 -0.000000 0.000000 0.000002 -0.000000 0.000000 0.000002 -0.000000 0.000000 0.000002 -0.000000 0.000000 0.000002 -0.000000 0.000000 0.000002 -0.000000 0.000000 0.000002 -0.000000 0.000000 0.000002 -0.000000 0.000000 0.000002 -0.000000 0.000000 0.000002 -0.000000 0.000000 0.000002 -0.000000 0.000000 0.000002 -0.000000 0.000000 0.000002 -0.000000 0.870930 -1.054920 -19.323111 11.546878 -4.117303 -51.490891 -0.000012 -61.781404 -0.000015 -22.780950 13.089992 -18.094655 74.824005 -40.508131 61.030322 25.742792 5.432243 -83.085474 -0.000001 -0.000001 0.000002 5.812339 7.842415 -80.897280 5.404952 5.834069 -85.619864 0.000002 0.000000 0.000001 5.058247 8.221971 -91.397213 4.690528 5.735194 -78.540475 -0.000002 0.000000 0.000000 4.428770 8.252848 -91.919470 5.849402 5.851111 -89.983412 0.000001 0.000000 0.000002 5.228969 8.401962 -99.733992 2.457529 4.769227 -54.503523 -0.000002 -0.000002 0.000001 0.000000 -0.000001 -0.000001 0.359526 6.327635 17.328661 15.284198 -11.054882 47.591187 -0.000004 67.686977 0.000002 -3.676078 -17.827376 7.043248 47.809716 35.835366 -5.333781 34.631327 -33.014522 35.094605 -0.000000 0.000002 -0.000000 6.413934 -7.132849 84.101294 4.420320 -4.651172 87.081545 -0.000005 0.000002 0.000002 7.888754 -6.638771 95.763630 4.359898 -4.647677 86.336316 -0.000001 -0.000001 -0.000002 5.609264 -6.844449 101.149890 3.623323 -4.541237 77.160169 0.000000 0.000000 -0.000001 5.460087 -6.871577 100.035101 1.712820 -3.609892 50.755084 0.000001 -0.000000 -0.000000 -0.000002 -0.000001 -0.000000 -0.000002 -0.000001 0.000000 -0.000002 -0.000001 0.000000 -0.000002 -0.000001 0.000000 -0.000002 -0.000001 0.000000 -0.000002 -0.000001 0.000000 -0.000002 -0.000001 0.000001 -0.000001 -0.000001 0.000000 -0.000001 -0.000001 0.000000 -0.000002 0.000000 0.000000 -0.000002 -0.000001 0.000001 
